<mxfile host="Electron" agent="Mozilla/5.0 (Windows NT 10.0; Win64; x64) AppleWebKit/537.36 (KHTML, like Gecko) draw.io/24.7.5 Chrome/126.0.6478.183 Electron/31.3.0 Safari/537.36" version="24.7.5">
  <diagram name="第 1 页" id="J9T8GNUwxKqM79LirnFY">
    <mxGraphModel dx="2046" dy="1882" grid="1" gridSize="10" guides="1" tooltips="1" connect="0" arrows="0" fold="1" page="1" pageScale="1" pageWidth="827" pageHeight="1169" math="0" shadow="0">
      <root>
        <mxCell id="0" />
        <mxCell id="1" parent="0" />
        <mxCell id="E4cTezsCCMQEkpvD_ubh-16" value="" style="shape=curlyBracket;whiteSpace=wrap;html=1;rounded=1;labelPosition=left;verticalLabelPosition=middle;align=right;verticalAlign=middle;" parent="1" vertex="1">
          <mxGeometry x="90" y="-80" width="20" height="390" as="geometry" />
        </mxCell>
        <mxCell id="E4cTezsCCMQEkpvD_ubh-32" value="中间表示IR设计需求" style="rounded=0;whiteSpace=wrap;html=1;" parent="1" vertex="1">
          <mxGeometry x="-30" y="90" width="120" height="50" as="geometry" />
        </mxCell>
        <mxCell id="E4cTezsCCMQEkpvD_ubh-33" value="张量表达" style="rounded=0;whiteSpace=wrap;html=1;" parent="1" vertex="1">
          <mxGeometry x="110" y="-100" width="80" height="40" as="geometry" />
        </mxCell>
        <mxCell id="E4cTezsCCMQEkpvD_ubh-34" value="" style="shape=flexArrow;endArrow=classic;html=1;rounded=0;exitX=1;exitY=0.5;exitDx=0;exitDy=0;" parent="1" source="E4cTezsCCMQEkpvD_ubh-33" edge="1">
          <mxGeometry width="50" height="50" relative="1" as="geometry">
            <mxPoint x="220" y="-60" as="sourcePoint" />
            <mxPoint x="230" y="-80" as="targetPoint" />
          </mxGeometry>
        </mxCell>
        <mxCell id="E4cTezsCCMQEkpvD_ubh-36" value="正确处理张量数据" style="rounded=1;whiteSpace=wrap;html=1;" parent="1" vertex="1">
          <mxGeometry x="230" y="-110" width="120" height="60" as="geometry" />
        </mxCell>
        <mxCell id="E4cTezsCCMQEkpvD_ubh-37" value="自动微分" style="rounded=0;whiteSpace=wrap;html=1;" parent="1" vertex="1">
          <mxGeometry x="110" y="-30" width="80" height="40" as="geometry" />
        </mxCell>
        <mxCell id="E4cTezsCCMQEkpvD_ubh-38" value="自动微分是指对网络模型的自动求导，通过梯度指导对网络权重的优化。主流机器学习框架都提供了自动微分的功能，在设计中间表示时需要考虑自动微分实现的简洁性、性能以及高阶微分的扩展能力。" style="rounded=1;whiteSpace=wrap;html=1;" parent="1" vertex="1">
          <mxGeometry x="230" y="-40" width="370" height="60" as="geometry" />
        </mxCell>
        <mxCell id="E4cTezsCCMQEkpvD_ubh-39" value="" style="shape=flexArrow;endArrow=classic;html=1;rounded=0;exitX=1;exitY=0.5;exitDx=0;exitDy=0;entryX=0;entryY=0.5;entryDx=0;entryDy=0;" parent="1" source="E4cTezsCCMQEkpvD_ubh-37" target="E4cTezsCCMQEkpvD_ubh-38" edge="1">
          <mxGeometry width="50" height="50" relative="1" as="geometry">
            <mxPoint x="200" y="-70" as="sourcePoint" />
            <mxPoint x="240" y="-70" as="targetPoint" />
          </mxGeometry>
        </mxCell>
        <mxCell id="E4cTezsCCMQEkpvD_ubh-40" value="计算图模式" style="rounded=0;whiteSpace=wrap;html=1;" parent="1" vertex="1">
          <mxGeometry x="110" y="55" width="80" height="40" as="geometry" />
        </mxCell>
        <mxCell id="E4cTezsCCMQEkpvD_ubh-41" value="主流机器学习框架如TensorFlow、PyTorch、MindSpore等都提供了静态图和动态图两种计算图模式，静态计算图模式先创建定义计算图，再显式执行，有利于对计算图进行优化，高效但不灵活。动态计算图模式则是每使用一个算子后，该算子会在计算图中立即执行得到结果，使用灵活、便于调试，但运行速度较低。机器学习框架的中间表示设计同时支持静态图和动态图，可以针对待解决的任务需求，选择合适的模式构建算法模型。" style="rounded=1;whiteSpace=wrap;html=1;" parent="1" vertex="1">
          <mxGeometry x="230" y="30" width="510" height="90" as="geometry" />
        </mxCell>
        <mxCell id="E4cTezsCCMQEkpvD_ubh-42" value="" style="shape=flexArrow;endArrow=classic;html=1;rounded=0;exitX=1;exitY=0.5;exitDx=0;exitDy=0;entryX=0;entryY=0.5;entryDx=0;entryDy=0;" parent="1" source="E4cTezsCCMQEkpvD_ubh-40" target="E4cTezsCCMQEkpvD_ubh-41" edge="1">
          <mxGeometry width="50" height="50" relative="1" as="geometry">
            <mxPoint x="200" as="sourcePoint" />
            <mxPoint x="240" as="targetPoint" />
          </mxGeometry>
        </mxCell>
        <mxCell id="E4cTezsCCMQEkpvD_ubh-43" value="支持高阶函数和闭包&lt;font style=&quot;font-size: 12px;&quot;&gt;&amp;nbsp;&lt;span style=&quot;color: rgba(0, 0, 0, 0.87); font-family: Roboto, &amp;quot;Noto Sans SC Sliced&amp;quot;, sans-serif; text-align: start; background-color: rgb(250, 250, 250);&quot; id=&quot;id9&quot; class=&quot;bibtex&quot;&gt;[2010C]&lt;/span&gt;&lt;/font&gt;" style="rounded=0;whiteSpace=wrap;html=1;" parent="1" vertex="1">
          <mxGeometry x="110" y="150" width="90" height="40" as="geometry" />
        </mxCell>
        <mxCell id="E4cTezsCCMQEkpvD_ubh-44" value="" style="shape=flexArrow;endArrow=classic;html=1;rounded=0;exitX=1;exitY=0.5;exitDx=0;exitDy=0;entryX=0;entryY=0.5;entryDx=0;entryDy=0;" parent="1" source="E4cTezsCCMQEkpvD_ubh-43" target="E4cTezsCCMQEkpvD_ubh-45" edge="1">
          <mxGeometry width="50" height="50" relative="1" as="geometry">
            <mxPoint x="200" y="110" as="sourcePoint" />
            <mxPoint x="240" y="110" as="targetPoint" />
          </mxGeometry>
        </mxCell>
        <mxCell id="E4cTezsCCMQEkpvD_ubh-45" value="高阶函数和闭包是函数式编程的重要特性，高阶函数是指使用其它函数作为参数、或者返回一个函数作为结果的函数，闭包是指代码块和作用域环境的结合，可以在另一个作用域中调用一个函数的内部函数，并访问到该函数作用域中的成员。支持高阶函数和闭包，可以抽象通用问题、减少重复代码、提升框架表达的灵活性和简洁性。" style="rounded=1;whiteSpace=wrap;html=1;" parent="1" vertex="1">
          <mxGeometry x="230" y="140" width="510" height="60" as="geometry" />
        </mxCell>
        <mxCell id="E4cTezsCCMQEkpvD_ubh-46" value="编译优化" style="rounded=0;whiteSpace=wrap;html=1;" parent="1" vertex="1">
          <mxGeometry x="110" y="220" width="80" height="40" as="geometry" />
        </mxCell>
        <mxCell id="E4cTezsCCMQEkpvD_ubh-47" value="" style="shape=flexArrow;endArrow=classic;html=1;rounded=0;exitX=1;exitY=0.5;exitDx=0;exitDy=0;entryX=0;entryY=0.5;entryDx=0;entryDy=0;" parent="1" source="E4cTezsCCMQEkpvD_ubh-46" target="E4cTezsCCMQEkpvD_ubh-48" edge="1">
          <mxGeometry width="50" height="50" relative="1" as="geometry">
            <mxPoint x="200" y="110" as="sourcePoint" />
            <mxPoint x="240" y="110" as="targetPoint" />
          </mxGeometry>
        </mxCell>
        <mxCell id="E4cTezsCCMQEkpvD_ubh-48" value="机器学习框架的编译优化主要包括硬件无关的优化、硬件相关的优化、部署推理相关的优化等，这些优化都依赖于中间表示的实现" style="rounded=1;whiteSpace=wrap;html=1;" parent="1" vertex="1">
          <mxGeometry x="230" y="210" width="370" height="60" as="geometry" />
        </mxCell>
        <mxCell id="E4cTezsCCMQEkpvD_ubh-49" value="JIT(Just In Time)能力" style="rounded=0;whiteSpace=wrap;html=1;" parent="1" vertex="1">
          <mxGeometry x="110" y="290" width="80" height="40" as="geometry" />
        </mxCell>
        <mxCell id="E4cTezsCCMQEkpvD_ubh-50" value="机器学习框架进行编译执行加速时，经常用到JIT即时编译。JIT编译优化将会对中间表示中的数据流图的可优化部分实施优化，包括循环展开、融合、内联等。中间表示设计是否合理，将会影响机器学习框架的JIT编译性能和程序的运行能力。" style="rounded=1;whiteSpace=wrap;html=1;" parent="1" vertex="1">
          <mxGeometry x="230" y="280" width="370" height="60" as="geometry" />
        </mxCell>
        <mxCell id="E4cTezsCCMQEkpvD_ubh-51" value="" style="shape=flexArrow;endArrow=classic;html=1;rounded=0;exitX=0.999;exitY=0.572;exitDx=0;exitDy=0;entryX=-0.001;entryY=0.548;entryDx=0;entryDy=0;exitPerimeter=0;entryPerimeter=0;" parent="1" source="E4cTezsCCMQEkpvD_ubh-49" target="E4cTezsCCMQEkpvD_ubh-50" edge="1">
          <mxGeometry width="50" height="50" relative="1" as="geometry">
            <mxPoint x="200" y="250" as="sourcePoint" />
            <mxPoint x="240" y="250" as="targetPoint" />
          </mxGeometry>
        </mxCell>
      </root>
    </mxGraphModel>
  </diagram>
</mxfile>
